<?xml version="1.0" encoding="utf-8" ?><svg xmlns="http://www.w3.org/2000/svg" xmlns:xlink="http://www.w3.org/1999/xlink" width="411" height="411" viewBox="0 0 411 411"><path fill="#0EA4A2" transform="matrix(0.200684 0 0 0.200684 0 0.00012207)" d="M885.513 448.159C890.792 437.071 902.361 421.044 908.877 409.925C934.557 366.104 964.707 323.457 995.676 283.241C1002.73 274.078 1016.06 256.177 1023.79 248.575C1034.22 258.254 1048.25 277.784 1057.3 289.867C1086.88 329.301 1114.78 369.963 1140.93 411.747C1145.23 418.472 1159.52 446.611 1163.13 449.762C1206.42 417.2 1252.57 384.835 1300.86 360.003C1311.12 391.239 1322.43 423.155 1330.39 454.952C1334.04 469.744 1337.38 484.612 1340.39 499.546C1341.78 506.157 1344.3 520.015 1346.55 525.903C1352.05 525.197 1365.42 520.608 1371.35 518.818C1384.56 514.924 1397.81 511.19 1411.11 507.618C1453.17 496.356 1530.82 480.049 1573.76 477.482C1574.44 556.72 1561.93 637.098 1545.16 714.304C1561.56 718.016 1586.83 721.74 1602.21 725.461C1615.42 728.656 1693.63 748.021 1697.71 753.055C1693.86 770.757 1632.65 867.091 1618.83 884.511C1638.91 898.541 1661.57 911.184 1681.93 925.072C1715.99 948.306 1747.87 972.529 1778.14 1000.59C1783.13 1005.21 1799.25 1018.16 1802 1022.26C1797.83 1036.34 1705.21 1108.55 1688.28 1120.9C1672.48 1132.42 1636.55 1154.93 1621.91 1167.11L1622.44 1168.16C1631.11 1184.76 1698.39 1283.14 1696.63 1295.29C1683.55 1304.17 1571.15 1331.29 1553.6 1333.9L1550.83 1335.97C1550.77 1340.44 1557.62 1366.26 1559.15 1372.88C1562.74 1388.94 1566.1 1405.06 1569.24 1421.21C1577.08 1461.5 1585.16 1529.7 1586.24 1572.34C1519.07 1573.25 1451.97 1567.55 1385.92 1555.32C1378.47 1553.98 1349.35 1546.8 1346.25 1548.92L1345.3 1551.05C1334.5 1593.74 1318.82 1648.65 1300.78 1689.03C1265.3 1672.16 1232.93 1655.5 1200.03 1633.68C1194.79 1630.21 1180.1 1621.16 1176.11 1616.99C1170.88 1618.94 1149.35 1655.46 1143.67 1663.16C1132.42 1678.39 1120.85 1692.62 1108.66 1707.04C1090.44 1728.83 1071.55 1750.06 1052.01 1770.68C1045.85 1777.12 1031.02 1792.84 1024.19 1798.25C987.437 1765.31 948.328 1719.39 917.507 1680.5C902.074 1661.02 887.628 1638.53 873.171 1618.22C859.184 1628.34 754.93 1690.5 746.654 1687.67C742.111 1680.84 739.209 1669.68 735.878 1661.98C719.872 1624.95 711.854 1586.95 700.757 1548.43C691.687 1550.58 676.593 1552.97 667.057 1554.79C599.742 1568.16 531.148 1574 462.541 1572.21C465.649 1499.04 476.11 1405.8 498.624 1336.15C494.317 1333.63 465.868 1328.76 458.564 1326.92C434.653 1320.89 410.394 1314.3 386.712 1307.44C377.829 1304.86 359.193 1299.83 351.423 1296.05L350.858 1294.12C356.785 1269.3 408.924 1194.57 424.958 1171.94C418.696 1165.67 397.976 1151.95 389.864 1146.2C373.274 1134.22 356.903 1121.94 340.76 1109.37C304.751 1080.84 277.051 1052.04 243.231 1023.95C278.138 995.925 309.641 962.882 347.088 937.411C363.75 926.078 380.321 915.564 397.508 905.056C406.779 899.388 421.221 892.471 429.006 885.87C425.506 880.104 421.316 874.077 417.426 868.503C391.191 830.906 369.459 791.64 348.287 751.02C356.673 748.16 378.156 742.966 387.685 740.659C415.796 733.853 464.066 719.468 491.945 718.11C494.49 717.498 496.022 717.019 498.504 716.169C500.713 712.28 496.76 695.842 495.527 690.482C482.433 633.587 478.364 574.87 475.077 516.707C474.525 506.954 472.946 489.264 474.611 480.199C475.557 479.146 475.956 478.127 477.428 478.279C535.172 484.208 594.676 495.112 650.322 511.322C660.607 514.319 698.001 526.211 701.631 525.561L703.683 522.463C704.215 515.327 706.685 503.032 708.048 495.641C716.445 450.104 731.665 404.205 747.421 360.751C786.436 380.012 829.709 409.612 865.367 434.845C869.533 437.793 881.401 447.159 885.513 448.159ZM1225.16 574.464C1244.11 564.511 1265.55 557.361 1285.35 549.2C1290.16 547.219 1309.88 540.183 1312.82 537.865L1313.44 535.037C1310.9 525.161 1308.36 507.387 1305.94 496.197C1299.63 467.247 1291.3 438.774 1281.01 410.987C1262.37 421.558 1191.94 466.857 1180.37 481.727C1191.56 500.199 1202.71 528.84 1212.7 548.697C1216.2 555.638 1221.07 568.389 1225.16 574.464ZM822.151 573.815C837.076 542.472 851.986 512.837 867.416 481.778C846.275 461.251 791.497 423.955 765.397 410.304C751.477 454.522 741.067 490.299 735.147 536.814C737.819 540.2 810.71 568.26 822.151 573.815ZM1650.47 772.914C1610.17 763.412 1584.19 755.394 1541.04 749.67C1537.38 749.596 1536.33 748.875 1534 750.579C1529.14 765.162 1524.83 779.78 1519.93 794.393C1515.43 807.775 1509.52 821.793 1505.5 835.129C1522.05 841.068 1538.37 847.64 1554.42 854.83C1560.17 857.407 1582.95 868.277 1587.58 869.266C1597.2 860.08 1643.37 786.39 1650.47 772.914ZM396.651 772.509C411.837 797.181 441.952 847.084 460.143 869.375C485.215 858.013 509.196 846.222 535.261 837.049C534.631 834.699 528.108 814.559 527.308 813.204C522.482 805.028 511.548 753.377 507.773 750.316C477.843 753.53 425.327 762.313 396.651 772.509ZM1538.54 1301.71C1580.65 1293.91 1609.72 1286.6 1651.11 1275.97C1634.29 1248.09 1611.82 1210.61 1592.39 1184.65C1584.37 1187.23 1568.31 1195.75 1559.86 1200.07C1543.78 1208.27 1525.94 1216.58 1510.36 1225.4C1518.39 1245.4 1526.31 1265.3 1533.03 1285.77C1534.48 1290.19 1536.15 1298.19 1538.54 1301.71ZM1315.08 1542.31C1313.36 1538.97 1314.16 1538.86 1310.02 1537.83C1296.32 1534.41 1282.28 1529.92 1269.02 1525.85C1262 1523.7 1237.44 1514.21 1232.21 1513.61C1231.61 1514.27 1192.8 1587.75 1192.35 1589.15C1222.73 1609.42 1252.12 1624.31 1281.99 1643.24C1295.16 1609.1 1304.97 1577.45 1315.08 1542.31ZM396.85 1275.26C433.717 1286 471.051 1295.07 508.736 1302.45C510.27 1300.34 534.187 1237.11 535.68 1231.45C517.579 1222.59 499.613 1213.45 481.789 1204.04C473.874 1199.86 462.309 1192.77 454.662 1189.43C437.732 1207.77 410.748 1252.77 396.85 1275.26ZM1138.98 1310.59C1132.32 1313.15 1115.44 1338.7 1107.76 1346.91C1081.24 1375.28 1053.06 1399.35 1024.44 1425.08C1004.1 1408.18 981 1388.14 962.78 1369.01C959.348 1364.94 954.831 1360.97 950.903 1357.29C952.632 1363.95 954.759 1369 957.301 1375.38C959.807 1379.53 964.348 1390.34 966.545 1395.12C971.51 1406.1 976.779 1416.93 982.344 1427.61C1018.6 1497.15 1057.33 1567.95 1112.27 1624.8C1108 1631.7 1095.02 1647.59 1089.54 1654.64C1085.1 1650.38 1065.04 1623.59 1060.48 1617.67C994.985 1532.66 932.462 1418.26 898.488 1315.79C896.073 1313.18 872.238 1313.54 867.024 1313.52C813.685 1313.27 765.627 1302.79 713.602 1293.2C710.94 1294.58 712.158 1293.82 710.483 1297.55C698.36 1353.69 679.84 1443.29 682.12 1500.88C676.966 1502.11 651.398 1508.78 648.311 1506.45C646.537 1502.2 646.754 1498.37 646.946 1493.86C649.152 1441.96 657.176 1390.52 667.22 1339.62C670.58 1322.59 675.083 1303.57 680.651 1287.17C680.198 1286.4 679.745 1285.63 679.292 1284.86C648.809 1275.69 618.638 1265.47 588.997 1253.86C581.827 1251.05 574.558 1248.47 567.349 1245.75C557.394 1265.99 546.401 1296.42 539.455 1318.03C516.164 1389.09 502.495 1462.94 498.813 1537.62C609.797 1537.65 731.625 1511.73 833.997 1469.06C863.712 1546.86 918.176 1628.57 970.752 1692.73C986.998 1712.55 1007.66 1731.58 1024.03 1751.35C1044.3 1729.79 1068.54 1703.45 1087.05 1680.62C1163.02 1588.16 1218.89 1480.88 1251.12 1365.63C1261.58 1369.44 1272.45 1373.58 1282.96 1377.09C1273.98 1414.68 1261.22 1445.68 1245.77 1481.24C1349.48 1521.29 1437.81 1533.05 1548.3 1538.01C1547.6 1468.1 1528.88 1380.85 1506.9 1314.13C1499.35 1291.22 1484.15 1259.71 1478.71 1239.13C1444.22 1253.28 1408.96 1265.46 1373.09 1275.63C1349.94 1282.01 1326.23 1287.13 1302.95 1293.05C1298.01 1294.31 1299.41 1298.55 1293.47 1299.63C1279.56 1302.16 1266.34 1303.88 1252.5 1306.97C1246.58 1307.6 1239.96 1307.91 1234.48 1309.94C1233.25 1311.5 1233.43 1310.79 1233.27 1311.78C1236.26 1312.23 1243.12 1313.92 1244.94 1314.06C1328.9 1343.22 1416.5 1358.76 1504.77 1366.67C1507.24 1372.27 1515.35 1395.17 1512.8 1400.38C1505.4 1402.36 1479.22 1398.58 1470.18 1397.6C1378.18 1387.44 1287.76 1366.12 1200.92 1334.1C1181.6 1327.18 1157.44 1318.96 1138.98 1310.59ZM1161.01 842.933C1156.47 833.666 1146.71 818.035 1141.25 808.692C1128.78 787.323 1116.13 765.132 1103.1 744.154C1044.26 651.935 985.35 586.766 906.766 511.851L922.068 481.154C930.492 486.546 954.825 512.254 962.941 520.213C1035.58 591.457 1097.34 668.778 1149.61 756.296C1153.01 760.274 1161.61 776.598 1164.54 781.911C1188.31 823.429 1204.07 866.875 1221.05 911.219C1234.6 946.603 1244.36 970.298 1249.43 1008.52C1263.8 973.358 1269.24 954.328 1275.05 916.719C1282.62 867.762 1270.59 830.617 1259.57 783.339C1218.71 608.006 1132.34 444.834 1023.79 301.813C962.365 381.895 909.527 468.21 866.145 559.336C843.684 606.255 824.019 653.085 809.356 703.031C807.077 710.795 804.428 717.891 802.909 725.893C881.806 725.983 955.582 749.596 1028.05 778.921C1042.89 783.892 1059.52 795.828 1073.74 800.682C1106.77 811.958 1131.25 825.215 1161.01 842.933ZM1043.47 1214.29C1148.71 1203.4 1225.2 1109.26 1214.33 1004.02C1203.46 898.772 1109.34 822.258 1004.09 833.106C898.813 843.956 822.27 938.112 833.144 1043.39C844.019 1148.67 938.191 1225.19 1043.47 1214.29ZM639.597 971.859C661.348 959.339 687.413 941.877 708.857 928.27C720.863 919.46 735.735 910.443 748.421 901.755C744.734 853.844 750.658 810.92 759.08 763.959C759.721 760.386 759.932 759.734 758.311 757.498C700.927 749.193 616.168 743.123 558.811 745.115L552.045 712.606C609.363 707.754 711.138 715.638 768.753 725.696C771.238 720.372 776.82 694.49 779.227 686.473C787.301 659.578 799.881 631.894 808.261 605.809C730.256 569.257 644.527 540.273 559.853 524.509C547.179 522.15 521.292 517.77 508.923 517.726C512.844 558.936 514.089 595.289 520.849 637.186C537.053 737.602 564.462 837.596 613.206 927.412C620.423 940.709 630.742 959.887 639.597 971.859ZM855.306 1587.62C853.177 1582.16 844.611 1568.11 841.476 1562.07C832.984 1545.73 824.272 1529.41 816.618 1512.62C796.453 1517.65 758.743 1533.29 737.298 1539.73C734.969 1540.43 735.071 1542.15 734.602 1544.12C739.347 1555.84 743.949 1575.29 747.535 1587.97C752.802 1606.5 758.96 1624.78 765.986 1642.72C787.576 1631.85 807.345 1619.59 827.654 1606.46C834.938 1601.75 849.092 1593.2 855.306 1587.62ZM1024.92 1383.34C1039.94 1370.5 1054.38 1356.98 1068.19 1342.84C1076.49 1334.29 1100.42 1309.4 1106.84 1300.51C1071.22 1290.7 1036.53 1277.82 1003.14 1262C991.839 1256.7 979.702 1248.74 968.726 1243.93C957.67 1239.09 945.342 1235.8 933.577 1230.88C921.362 1225.77 901.345 1211.55 891.271 1207.57C901.126 1236.13 928.505 1277.3 946.555 1302.49C966.379 1330.16 999.552 1360.93 1024.92 1383.34ZM295.631 1022.52C311.959 1040.3 330.672 1055.87 349.13 1071.34C431.776 1140.74 525.781 1195.35 627.003 1232.76C635.477 1235.99 683.964 1253.59 689.717 1251.42L690.697 1250.1C694.013 1230.62 703.82 1205.06 710.501 1186.38C716.877 1168.55 723.617 1148.12 731.813 1131.3C729.038 1126.75 695.463 1095.55 688.599 1088.23C668.476 1066.78 649.239 1044.87 631.887 1020.95C587.764 1050.01 522.674 1113.19 484.7 1151.38C475.49 1144.91 467.742 1138.19 457.961 1131.79C462.327 1125.18 477.895 1111.13 483.865 1104.94C513.443 1074.27 546.17 1047.41 578.632 1019.97C589.468 1010.81 602.542 1002.29 612.401 993.712L613.109 993.087C595.602 968.939 577.265 930.432 563.453 903.524C557.727 892.368 552.984 879.992 546.867 868.745C525.286 876.108 504.956 886.603 484.421 896.181C422.417 925.101 365.562 963.623 313.317 1007.64C307.438 1012.59 301.605 1017.66 295.631 1022.52ZM1381.01 1077.5C1387.64 1075.11 1395.54 1069.56 1401.21 1065.33C1452.63 1031.94 1501.4 994.631 1547.08 953.736C1558.74 943.199 1568.58 931.465 1579.39 921.523C1587.62 925.326 1602.38 932.437 1610.11 937.089C1532.97 1021.05 1409.78 1106.07 1308.89 1157.7C1307.87 1158.61 1307.2 1160.06 1307.25 1161.45C1308.37 1193.92 1307.97 1226.5 1304.09 1258.85C1431.05 1228.72 1544.05 1180.45 1651.47 1105.89C1688.02 1080.52 1719.71 1049.88 1754.7 1023.61C1742.74 1013.24 1728.46 1003.22 1716.11 993.18C1643.64 934.292 1576.7 899.797 1491.78 863.758C1488.31 874.018 1481.18 888.849 1476.35 898.666C1465.05 921.276 1452.95 943.473 1440.06 965.216C1431.07 980.272 1420.84 995.703 1412.64 1011.05C1417.42 1015.23 1421.15 1018.67 1425.63 1023.17C1419.09 1033.3 1403.22 1050.93 1394.83 1060.33C1391.46 1064.22 1382.91 1073.48 1381.01 1077.5ZM1272.03 1271.65C1273.64 1255.3 1281.12 1176.24 1275.41 1165.23L1273.78 1164.88C1244.83 1177.56 1217.97 1194.44 1188.03 1205.02C1154.39 1216.92 1120.24 1227.37 1086.81 1239.89C1079.91 1242.48 1058.55 1245.92 1054.39 1248.41C1057.08 1251.36 1075.04 1257.04 1080.01 1258.75C1121.81 1272.09 1159.5 1280.12 1204.15 1279.06C1228.35 1278.49 1248.56 1274.64 1272.03 1271.65ZM1255.54 1137.28C1279.47 1122.64 1301.05 1108.69 1322.39 1090.41C1345.64 1070.52 1365.12 1047.93 1385.65 1025.35C1374.81 1013 1314.23 955.62 1301.82 951.267C1295.48 970.547 1290.01 990.759 1282.7 1009.57C1269.5 1043.52 1252.84 1075.22 1234.92 1106.82C1222.8 1128.19 1213.37 1145.6 1199.11 1165.74C1214.02 1161.22 1242.15 1145.73 1255.54 1137.28ZM780.957 881.857C815.566 860.934 880.598 837.047 919.29 822.28C933.994 816.249 949.337 810.691 964.621 806.292C974.237 803.525 985.212 801.924 994.626 799.003C938.17 776.879 854.99 756.186 794.503 755.574C788.429 787.723 778.295 849.563 780.957 881.857ZM739.486 1210.77L738.515 1209.8C734.912 1213.26 724.535 1249.92 721.365 1257.9C725.049 1262.99 736.99 1264.28 744.041 1265.91C742.419 1247.7 740.526 1228.98 739.486 1210.77ZM796.851 1040.97C772.532 1100.99 767.51 1159.38 772.272 1223.48C773.451 1239.36 775.665 1256.42 776.503 1272.02C806.788 1276.92 837.388 1279.61 868.062 1280.08L891.647 1280.3C873.535 1251.86 856.932 1209.92 842.215 1179.15C836.392 1166.97 832.508 1151.92 827.318 1139.3C822.06 1126.51 816.867 1113.54 812.023 1100.6C808.9 1091.89 807.108 1081.32 804.301 1072.72C801.986 1065.62 799.834 1045.87 796.851 1040.97ZM1317.01 920.18C1319.31 924.19 1352.89 950.413 1359.45 956.437C1367.78 964.078 1380.1 975.317 1388.73 983.401C1480.49 844.834 1532.33 683.685 1538.59 517.609C1525.16 517.977 1501.66 522.558 1488.15 524.934C1401.27 540.209 1319.91 570.629 1239.41 605.97C1251.03 639.787 1263.23 672.35 1273.67 706.688C1286.03 747.361 1293.91 789.66 1305.39 830.221C1308.8 826.785 1311.39 808.292 1312.44 802.859C1323.6 745.011 1329.1 685.494 1330.65 626.668C1331.77 583.904 1316.42 585.523 1361.67 575.095C1368.83 679.158 1348.11 821.829 1317.01 920.18ZM746.246 1099.06C757.273 1050.62 776.428 1003.87 801.093 960.88C814.548 937.43 826.969 913.082 841.666 890.39L840.7 888.982C768.862 918.579 718.969 955.414 669.247 1014.87C681.476 1033.37 694.05 1047.13 709.33 1063.02C718.357 1072.26 736.25 1091.3 746.246 1099.06Z"/><path fill="#EBF2FA" transform="matrix(0.200684 0 0 0.200684 0 0.00012207)" d="M1163.13 449.762C1206.42 417.2 1252.57 384.835 1300.86 360.003C1311.12 391.239 1322.43 423.155 1330.39 454.952C1334.04 469.744 1337.38 484.612 1340.39 499.546C1341.78 506.157 1344.3 520.015 1346.55 525.903C1341.11 528.205 1318.52 537.322 1314.03 535.933L1313.44 535.037C1310.9 525.161 1308.36 507.387 1305.94 496.197C1299.63 467.247 1291.3 438.774 1281.01 410.987C1262.37 421.558 1191.94 466.857 1180.37 481.727C1175.09 472.661 1167.46 459.074 1163.13 449.762Z"/><path fill="#EBF2FA" transform="matrix(0.200684 0 0 0.200684 0 0.00012207)" d="M747.421 360.751C786.436 380.012 829.709 409.612 865.367 434.845C869.533 437.793 881.401 447.159 885.513 448.159C884.405 452.741 870.55 476.311 867.416 481.778C846.275 461.251 791.497 423.955 765.397 410.304C751.477 454.522 741.067 490.299 735.147 536.814C729.303 536.232 711.111 530.51 705.525 527.075C703.605 525.894 704.224 525.483 703.683 522.463C704.215 515.327 706.685 503.032 708.048 495.641C716.445 450.104 731.665 404.205 747.421 360.751Z"/><path fill="#EBF2FA" transform="matrix(0.200684 0 0 0.200684 0 0.00012207)" d="M1541.04 749.67L1535.96 747.177C1536.91 740.409 1542.79 721.393 1545.16 714.304C1561.56 718.016 1586.83 721.74 1602.21 725.461C1615.42 728.656 1693.63 748.021 1697.71 753.055C1693.86 770.757 1632.65 867.091 1618.83 884.511L1617.7 885.154C1612.94 884.255 1591.78 872.753 1587.58 869.266C1597.2 860.08 1643.37 786.39 1650.47 772.914C1610.17 763.412 1584.19 755.394 1541.04 749.67Z"/><path fill="#EBF2FA" transform="matrix(0.200684 0 0 0.200684 0 0.00012207)" d="M348.287 751.02C356.673 748.16 378.156 742.966 387.685 740.659C415.796 733.853 464.066 719.468 491.945 718.11C496.105 718.294 497.457 717.401 500.899 720.245C503.739 722.593 509.101 748.617 507.773 750.316C477.843 753.53 425.327 762.313 396.651 772.509C411.837 797.181 441.952 847.084 460.143 869.375C454.454 874.072 436.659 881.743 429.006 885.87C425.506 880.104 421.316 874.077 417.426 868.503C391.191 830.906 369.459 791.64 348.287 751.02Z"/><path fill="#EBF2FA" transform="matrix(0.200684 0 0 0.200684 0 0.00012207)" d="M1592.39 1184.65C1595.97 1180.68 1616.38 1169.1 1621.91 1167.11L1622.44 1168.16C1631.11 1184.76 1698.39 1283.14 1696.63 1295.29C1683.55 1304.17 1571.15 1331.29 1553.6 1333.9L1550.08 1333.72C1546.78 1330.52 1540.56 1307.63 1538.54 1301.71C1580.65 1293.91 1609.72 1286.6 1651.11 1275.97C1634.29 1248.09 1611.82 1210.61 1592.39 1184.65Z"/><path fill="#EBF2FA" transform="matrix(0.200684 0 0 0.200684 0 0.00012207)" d="M424.958 1171.94C429.609 1172.49 451.097 1186.04 454.662 1189.43C437.732 1207.77 410.748 1252.77 396.85 1275.26C433.717 1286 471.051 1295.07 508.736 1302.45C507.044 1311.36 499.25 1330.35 498.624 1336.15C494.317 1333.63 465.868 1328.76 458.564 1326.92C434.653 1320.89 410.394 1314.3 386.712 1307.44C377.829 1304.86 359.193 1299.83 351.423 1296.05L350.858 1294.12C356.785 1269.3 408.924 1194.57 424.958 1171.94Z"/><path fill="#EBF2FA" transform="matrix(0.200684 0 0 0.200684 0 0.00012207)" d="M700.757 1548.43C709.259 1547.2 724.228 1541.08 732.664 1541.79L734.602 1544.12C739.347 1555.84 743.949 1575.29 747.535 1587.97C752.802 1606.5 758.96 1624.78 765.986 1642.72C787.576 1631.85 807.345 1619.59 827.654 1606.46C834.938 1601.75 849.092 1593.2 855.306 1587.62C855.354 1587.85 871.33 1614.96 873.171 1618.22C859.184 1628.34 754.93 1690.5 746.654 1687.67C742.111 1680.84 739.209 1669.68 735.878 1661.98C719.872 1624.95 711.854 1586.95 700.757 1548.43Z"/><path fill="#EBF2FA" transform="matrix(0.200684 0 0 0.200684 0 0.00012207)" d="M1315.08 1542.31C1317.61 1540.61 1317.92 1540.73 1321.95 1541.74C1326.32 1542.85 1342.55 1545.92 1344.96 1548.82L1345.3 1551.05C1334.5 1593.74 1318.82 1648.65 1300.78 1689.03C1265.3 1672.16 1232.93 1655.5 1200.03 1633.68C1194.79 1630.21 1180.1 1621.16 1176.11 1616.99C1177.31 1612.48 1188.99 1595.22 1192.35 1589.15C1222.73 1609.42 1252.12 1624.31 1281.99 1643.24C1295.16 1609.1 1304.97 1577.45 1315.08 1542.31Z"/><path fill="#0EA4A2" transform="matrix(0.200684 0 0 0.200684 0 0.00012207)" d="M990.777 851.352C999.775 852.343 1035.1 884.41 1044.58 892.188C1032.4 891.601 1009.44 890.218 998.232 893.501C973.132 900.857 957.349 908.383 930.838 912.386C923.174 914.373 891.747 920.36 884.663 919.663L884.106 917.928C884.49 916.816 884.883 915.59 885.61 914.638C908.457 884.669 954.457 856.568 990.777 851.352Z"/><path fill="#0EA4A2" transform="matrix(0.200684 0 0 0.200684 0 0.00012207)" d="M1164.13 1126.3C1165.25 1126.44 1164.58 1126.24 1165.93 1127.41C1165.52 1132.3 1152 1143.3 1147.99 1147.38C1120.26 1175.58 1093.64 1187.43 1055.96 1195.91C1047.35 1190.75 1039.3 1183.4 1031.54 1176.95C1023.05 1169.34 1014.34 1164.72 1005.27 1156.14C1029.14 1154.86 1049.09 1158.19 1072.16 1147.32C1099.04 1134.67 1134.68 1130.72 1164.13 1126.3Z"/><path fill="#0EA4A2" transform="matrix(0.200684 0 0 0.200684 0 0.00012207)" d="M914.3 1101.27C917.783 1102.11 938.476 1126.97 945.577 1130.91C973.272 1146.28 997.406 1156.47 1020.02 1180.27C1025.41 1185.94 1040.06 1193.45 1042.73 1200.02C997.529 1202.65 952.814 1189.5 916.219 1162.84C916.215 1140.97 915.776 1123.13 914.3 1101.27Z"/><path fill="#0EA4A2" transform="matrix(0.200684 0 0 0.200684 0 0.00012207)" d="M1016.77 848.462C1059.96 847.766 1094.02 857.713 1129.66 883.428C1130.81 890.293 1136.08 942.941 1135.46 947.961L1134.06 947.952L1132.01 945.428C1108.72 918.684 1094.72 909.816 1063.61 895.898C1052.97 891.135 1035.26 870.309 1024.56 863.273C1021.18 861.048 1009.57 853.488 1008.34 850.333C1011.3 848.828 1013.48 848.838 1016.77 848.462Z"/><path fill="#0EA4A2" transform="matrix(0.200684 0 0 0.200684 0 0.00012207)" d="M930.648 922.404C933.686 921.881 932.301 921.681 934.974 922.749C934.55 925.8 927.942 931.552 925.427 934.38C914.834 946.294 906.141 960.406 900.642 975.382C899.044 979.735 898.499 983.436 895.581 987.394C882.134 1005.63 866.174 1023.01 853.305 1041.56L851.003 1042.03L849.94 1040.67C846.16 997.278 855.177 966.418 875.553 929.307C894.886 927.547 911.587 926.225 930.648 922.404Z"/><path fill="#0EA4A2" transform="matrix(0.200684 0 0 0.200684 0 0.00012207)" d="M1196.75 1006.52C1201.94 1010.64 1200.37 1025.14 1200.05 1031.51C1198.46 1062.29 1187.83 1088.99 1174.08 1116.13C1157.18 1118.9 1131.34 1123.73 1114.75 1124.39L1112.5 1123.29C1114.18 1118.3 1139.12 1097.32 1143.81 1081.79C1150.9 1058.33 1181.07 1024.57 1196.75 1006.52Z"/><path fill="#0EA4A2" transform="matrix(0.200684 0 0 0.200684 0 0.00012207)" d="M889.865 1009.72C892.944 1013.33 891.403 1024.08 891.555 1029.66C891.802 1041.89 894.008 1054.01 898.089 1065.55C899.504 1069.63 904.265 1081.72 904.405 1085.22C905.283 1107.24 908.043 1134.03 907.453 1155.68C900.751 1149.59 894.467 1143.05 888.644 1136.11C869.819 1114.74 858.387 1086.23 851.246 1059C865.166 1043.12 876.365 1025.08 889.865 1009.72Z"/><path fill="#0EA4A2" transform="matrix(0.200684 0 0 0.200684 0 0.00012207)" d="M1141.41 893.301C1141.76 893.484 1142.11 893.668 1142.46 893.851C1168.03 913.762 1190.96 960.25 1196.9 990.009C1189.91 1000.25 1182.77 1008.76 1174.89 1018.28L1157.85 1039.79C1158.73 1024.97 1158.89 1005 1153.38 991.346C1144.63 969.641 1144.41 950.661 1143.47 927.615C1143.01 916.556 1141.09 904.54 1141.41 893.301Z"/><path fill="#EBF2FA" transform="matrix(0.200684 0 0 0.200684 0 0.00012207)" d="M898.488 1315.79C901.446 1313.01 911.232 1313.15 915.905 1312.91C923.129 1322.32 930.423 1331.68 937.785 1340.98C939.99 1343.72 949.949 1355.4 950.903 1357.29C952.632 1363.95 954.759 1369 957.301 1375.38C959.807 1379.53 964.348 1390.34 966.545 1395.12C971.51 1406.1 976.779 1416.93 982.344 1427.61C1018.6 1497.15 1057.33 1567.95 1112.27 1624.8C1108 1631.7 1095.02 1647.59 1089.54 1654.64C1085.1 1650.38 1065.04 1623.59 1060.48 1617.67C994.985 1532.66 932.462 1418.26 898.488 1315.79Z"/><path fill="#EBF2FA" transform="matrix(0.200684 0 0 0.200684 0 0.00012207)" d="M1138.98 1310.59L1138.44 1308.17C1140.79 1306.57 1149.31 1307.72 1152.4 1308.12C1177.26 1311.36 1202.02 1309.87 1226.94 1310.61C1228.77 1310.67 1230.88 1311.89 1233.27 1311.78C1236.26 1312.23 1243.12 1313.92 1244.94 1314.06C1328.9 1343.22 1416.5 1358.76 1504.77 1366.67C1507.24 1372.27 1515.35 1395.17 1512.8 1400.38C1505.4 1402.36 1479.22 1398.58 1470.18 1397.6C1378.18 1387.44 1287.76 1366.12 1200.92 1334.1C1181.6 1327.18 1157.44 1318.96 1138.98 1310.59Z"/><path fill="#EBF2FA" transform="matrix(0.200684 0 0 0.200684 0 0.00012207)" d="M1401.21 1065.33C1452.63 1031.94 1501.4 994.631 1547.08 953.736C1558.74 943.199 1568.58 931.465 1579.39 921.523C1587.62 925.326 1602.38 932.437 1610.11 937.089C1532.97 1021.05 1409.78 1106.07 1308.89 1157.7L1307.62 1156.64C1305.85 1152.53 1306.01 1147.85 1305.77 1143.27C1320.91 1131.86 1335.52 1121.47 1349.5 1108.52C1360.4 1098.43 1370.26 1087.71 1381.01 1077.5C1387.64 1075.11 1395.54 1069.56 1401.21 1065.33Z"/><path fill="#EBF2FA" transform="matrix(0.200684 0 0 0.200684 0 0.00012207)" d="M922.068 481.154C930.492 486.546 954.825 512.254 962.941 520.213C1035.58 591.457 1097.34 668.778 1149.61 756.296L1148.78 757.752C1146.25 755.824 1140.97 747.409 1137.76 743.641L1136.99 742.756C1128.82 743.594 1109.75 746.036 1103.1 744.154C1044.26 651.935 985.35 586.766 906.766 511.851L922.068 481.154Z"/><path fill="#EBF2FA" transform="matrix(0.200684 0 0 0.200684 0 0.00012207)" d="M1305.39 830.221C1308.8 826.785 1311.39 808.292 1312.44 802.859C1323.6 745.011 1329.1 685.494 1330.65 626.668C1331.77 583.904 1316.42 585.523 1361.67 575.095C1368.83 679.158 1348.11 821.829 1317.01 920.18C1313.8 919.835 1309.55 916.483 1306.66 914.576C1308.1 897.047 1309.07 883.807 1308.57 866.098C1308.4 860.077 1305.04 833.003 1305.39 830.221Z"/><path fill="#EBF2FA" transform="matrix(0.200684 0 0 0.200684 0 0.00012207)" d="M680.651 1287.17C684.34 1285.21 707.177 1291.29 710.008 1294.48L710.483 1297.55C698.36 1353.69 679.84 1443.29 682.12 1500.88C676.966 1502.11 651.398 1508.78 648.311 1506.45C646.537 1502.2 646.754 1498.37 646.946 1493.86C649.152 1441.96 657.176 1390.52 667.22 1339.62C670.58 1322.59 675.083 1303.57 680.651 1287.17Z"/><path fill="#EBF2FA" transform="matrix(0.200684 0 0 0.200684 0 0.00012207)" d="M552.045 712.606C609.363 707.754 711.138 715.638 768.753 725.696C765.74 733.748 762.638 752.74 760.041 757.326L758.311 757.498C700.927 749.193 616.168 743.123 558.811 745.115L552.045 712.606Z"/><path fill="#EBF2FA" transform="matrix(0.200684 0 0 0.200684 0 0.00012207)" d="M613.109 993.087C615.837 997.582 628.973 1017.57 631.887 1020.95C587.764 1050.01 522.674 1113.19 484.7 1151.38C475.49 1144.91 467.742 1138.19 457.961 1131.79C462.327 1125.18 477.895 1111.13 483.865 1104.94C513.443 1074.27 546.17 1047.41 578.632 1019.97C589.468 1010.81 602.542 1002.29 612.401 993.712L613.109 993.087Z"/><path fill="#EBF2FA" transform="matrix(0.200684 0 0 0.200684 0 0.00012207)" d="M731.813 1131.3L733.511 1130.32C737.431 1132.12 737.946 1132.72 741.314 1135.56C740.78 1145.83 740.247 1158.39 739.967 1168.31C739.773 1175.18 740.593 1206.86 739.486 1210.77L738.515 1209.8C734.912 1213.26 724.535 1249.92 721.365 1257.9L720.82 1259.21C716.739 1260.46 694.494 1254.78 691.007 1252.3L690.697 1250.1C694.013 1230.62 703.82 1205.06 710.501 1186.38C716.877 1168.55 723.617 1148.12 731.813 1131.3Z"/><path fill="#EBF2FA" transform="matrix(0.200684 0 0 0.200684 0 0.00012207)" d="M708.857 928.27L711.01 929.51C705.297 935.928 698.61 940.302 692.748 946.014C678.655 959.745 663.672 973.436 651.102 988.537C649.083 985.505 641.84 973.625 639.597 971.859C661.348 959.339 687.413 941.877 708.857 928.27Z"/><path fill="#9CFEFF" fill-opacity="0.043137256" transform="matrix(0.200684 0 0 0.200684 0 0.00012207)" d="M1381.01 1077.5C1382.91 1073.48 1391.46 1064.22 1394.83 1060.33L1396.06 1064.33C1398.6 1065.27 1398.5 1065.22 1401.21 1065.33C1395.54 1069.56 1387.64 1075.11 1381.01 1077.5Z"/><path fill="#9CFEFF" fill-opacity="0.043137256" transform="matrix(0.200684 0 0 0.200684 0 0.00012207)" d="M950.903 1357.29C954.831 1360.97 959.348 1364.94 962.78 1369.01L959.1 1370.11C958.067 1372.41 957.926 1372.93 957.301 1375.38C954.759 1369 952.632 1363.95 950.903 1357.29Z"/><path fill="#9CFEFF" fill-opacity="0.05882353" transform="matrix(0.200684 0 0 0.200684 0 0.00012207)" d="M1233.27 1311.78C1233.43 1310.79 1233.25 1311.5 1234.48 1309.94C1239.96 1307.91 1246.58 1307.6 1252.5 1306.97C1248.48 1309.55 1246.33 1310.07 1244.94 1314.06C1243.12 1313.92 1236.26 1312.23 1233.27 1311.78Z"/><path fill="#3B6F98" transform="matrix(0.200684 0 0 0.200684 0 0.00012207)" d="M780.972 694.485L782.227 695.582C783.905 700.886 783.236 707.771 782.552 713.222C780.154 708.795 780.639 699.542 780.972 694.485Z"/></svg>